<?xml version="1.0" encoding="UTF-8"?>
<svg width="400" height="400" viewBox="0 0 400 400" fill="none" xmlns="http://www.w3.org/2000/svg">
    <!-- Background glow -->
    <circle cx="200" cy="200" r="180" fill="url(#glow)" opacity="0.2"/>
    
    <!-- Character -->
    <g transform="translate(100, 80)">
        <!-- Body -->
        <path d="M100 140 C 60 140, 40 180, 40 220 C 40 260, 60 280, 100 280 C 140 280, 160 260, 160 220 C 160 180, 140 140, 100 140" fill="#2196F3"/>
        
        <!-- Head -->
        <circle cx="100" cy="100" r="60" fill="#FFD3B6"/>
        
        <!-- Glasses -->
        <path d="M70 90 L130 90" stroke="#333" stroke-width="3"/>
        <circle cx="80" cy="90" r="20" stroke="#333" stroke-width="3" fill="none"/>
        <circle cx="120" cy="90" r="20" stroke="#333" stroke-width="3" fill="none"/>
        
        <!-- Hair -->
        <path d="M60 60 C 60 40, 80 20, 100 20 C 120 20, 140 40, 140 60 C 140 80, 120 100, 100 100 C 80 100, 60 80, 60 60" fill="#333"/>
        
        <!-- Tablet -->
        <rect x="60" y="180" width="80" height="60" rx="10" fill="#FF4081"/>
    </g>
    
    <!-- Floating Icons -->
    <g transform="translate(200, 100)">
        <circle cx="0" cy="0" r="10" fill="#fff" opacity="0.8"/>
        <circle cx="40" cy="-20" r="8" fill="#fff" opacity="0.8"/>
        <circle cx="-30" cy="30" r="12" fill="#fff" opacity="0.8"/>
        <circle cx="20" cy="40" r="6" fill="#fff" opacity="0.8"/>
        <circle cx="-40" cy="-10" r="9" fill="#fff" opacity="0.8"/>
    </g>
    
    <!-- Gradients -->
    <defs>
        <radialGradient id="glow" cx="50%" cy="50%" r="50%" fx="50%" fy="50%">
            <stop offset="0%" style="stop-color:#9E72C3;stop-opacity:0.5"/>
            <stop offset="100%" style="stop-color:#4A2574;stop-opacity:0"/>
        </radialGradient>
    </defs>
</svg> 